# xmcd CD database file
#
# Track frame offsets:
#	150
#	17391
#	45486
#	66003
#	81413
#	102227
#	115627
#	138175
#	157101
#	186980
#	199122
#
# Disc length: 2900 seconds
#
# Revision: 0
# Processed by: cddbd v1.5.1PL2 Copyright (c) Steve Scherf et al.
# Submitted via: CDex 1.51
#
DISCID=8b0b520b
DTITLE=Stephan Abel and Jimmy Woode - My Kind Of World
DYEAR=2005
DGENRE=Jazz
TTITLE0=My Kind Of World
TTITLE1=Chelsea Bridge
TTITLE2=Stephanovic's Blues
TTITLE3=Blues Inside Out
TTITLE4=The Rainbow People
TTITLE5=Gee Baby Ain't I Good To You
TTITLE6=Once I Loved
TTITLE7=Dat Dere
TTITLE8=Moonlight In Vermont
TTITLE9=Makin' Whopee
TTITLE10=The Man From Potter's Crossing
EXTD=YEAR: 2005
EXTT0=
EXTT1=
EXTT2=
EXTT3=
EXTT4=
EXTT5=
EXTT6=
EXTT7=
EXTT8=
EXTT9=
EXTT10=
PLAYORDER=
